<svg width="24" height="24" viewBox="0 0 24 24" fill="none" xmlns="http://www.w3.org/2000/svg">
<path d="M19 13.9413H20V13.9413L19 13.9413ZM19 13.9999H18H19ZM18.4668 16.6786L19.3907 17.0613L19.3907 17.0613L18.4668 16.6786ZM16.9502 18.9501L17.6573 19.6572L17.6573 19.6572L16.9502 18.9501ZM14.6787 20.4667L15.0614 21.3906L15.0614 21.3906L14.6787 20.4667ZM12 20.9999V21.9999V21.9999V20.9999ZM9.32129 20.4667L8.9386 21.3906L8.93861 21.3906L9.32129 20.4667ZM7.0498 18.9501L6.3427 19.6572L6.3427 19.6572L7.0498 18.9501ZM5.5332 16.6786L4.60932 17.0613L4.60933 17.0613L5.5332 16.6786ZM5 13.9999L4 13.9999V13.9999H5ZM15.4118 6.0711L14.7705 5.30378L15.4118 6.0711ZM15.5881 6.07098L14.9469 6.83836L15.5881 6.07098ZM13.1079 8.5398L12.1606 8.85994L13.1079 8.5398ZM13.3931 8.56616L12.5246 8.07057L13.3931 8.56616ZM9.80918 3.08669L10.4745 3.83322L9.80918 3.08669ZM10.0027 3.09766L9.27025 3.77851C9.61919 4.15389 11.1724 5.93586 12.1606 8.85994L13.1079 8.5398L14.0553 8.21965C12.9469 4.93969 11.2018 2.91888 10.7351 2.41681L10.0027 3.09766ZM13.3931 8.56616L14.2617 9.06174C14.9994 7.76884 15.8299 7.02495 16.0531 6.83842L15.4118 6.0711L14.7705 5.30378C14.4253 5.59234 13.4139 6.51193 12.5246 8.07057L13.3931 8.56616ZM15.5881 6.07098L14.9469 6.83836C15.3899 7.2085 18 9.57829 18 13.9413L19 13.9413L20 13.9413C20 8.71873 16.872 5.84066 16.2292 5.30359L15.5881 6.07098ZM19 13.9413H18V13.9999H19H20V13.9413H19ZM19 13.9999H18C18 14.7875 17.8445 15.5677 17.5429 16.2959L18.4668 16.6786L19.3907 17.0613C19.7926 16.0909 20 15.0507 20 13.9999H19ZM18.4668 16.6786L17.5429 16.2959C17.2411 17.0245 16.7997 17.6863 16.2431 18.243L16.9502 18.9501L17.6573 19.6572C18.4007 18.9138 18.9889 18.0312 19.3907 17.0613L18.4668 16.6786ZM16.9502 18.9501L16.2431 18.243C15.6865 18.7996 15.0246 19.241 14.296 19.5428L14.6787 20.4667L15.0614 21.3906C16.0313 20.9888 16.9139 20.4005 17.6573 19.6572L16.9502 18.9501ZM14.6787 20.4667L14.296 19.5428C13.5678 19.8444 12.7877 19.9999 12 19.9999V20.9999V21.9999C13.0508 21.9999 14.091 21.7925 15.0614 21.3906L14.6787 20.4667ZM12 20.9999V19.9999C11.2123 19.9999 10.4322 19.8444 9.70397 19.5428L9.32129 20.4667L8.93861 21.3906C9.90896 21.7925 10.9492 21.9999 12 21.9999V20.9999ZM9.32129 20.4667L9.70398 19.5428C8.97538 19.241 8.31354 18.7996 7.75691 18.243L7.0498 18.9501L6.3427 19.6572C7.08606 20.4005 7.96869 20.9888 8.9386 21.3906L9.32129 20.4667ZM7.0498 18.9501L7.75691 18.243C7.20029 17.6863 6.75888 17.0245 6.45708 16.2959L5.5332 16.6786L4.60933 17.0613C5.01109 18.0312 5.59934 18.9138 6.3427 19.6572L7.0498 18.9501ZM5.5332 16.6786L6.45708 16.2959C6.15545 15.5677 6 14.7875 6 13.9999H5H4C4 15.0507 4.2074 16.0909 4.60932 17.0613L5.5332 16.6786ZM5 13.9999L6 13.9999C6.00001 8.07881 9.84225 4.39674 10.4745 3.83322L9.80918 3.08669L9.14383 2.34016C8.38087 3.02015 4.00001 7.20632 4 13.9999L5 13.9999ZM15.4118 6.0711L16.0531 6.83842C15.7346 7.10458 15.2678 7.1065 14.9469 6.83836L15.5881 6.07098L16.2292 5.30359C15.8053 4.94937 15.192 4.95152 14.7705 5.30378L15.4118 6.0711ZM13.1079 8.5398L12.1606 8.85994C12.4848 9.81949 13.7763 9.91242 14.2617 9.06174L13.3931 8.56616L12.5246 8.07057C12.8777 7.45165 13.8165 7.5129 14.0553 8.21965L13.1079 8.5398ZM10.0027 3.09766L10.7351 2.41681C10.3295 1.98047 9.62634 1.91012 9.14383 2.34016L9.80918 3.08669L10.4745 3.83322C10.1071 4.16066 9.57087 4.10191 9.27025 3.77851L10.0027 3.09766Z" fill="#66FCF1"/>
<path d="M11.458 11.4102L10.8311 10.6311L10.8311 10.6311L11.458 11.4102ZM12.542 11.4102L13.1689 10.6311L13.1689 10.631L12.542 11.4102ZM15.9541 16.3848L16.9433 16.2381L16.9432 16.2376L15.9541 16.3848ZM15.9541 16.3906L14.9638 16.53L14.9656 16.5417L15.9541 16.3906ZM16 17L17 17V17H16ZM8 17H7V17L8 17ZM8.0459 16.3906L9.03449 16.5417L9.03614 16.53L8.0459 16.3906ZM8.0459 16.3848L7.05679 16.2376L7.05671 16.2381L8.0459 16.3848ZM11.458 11.4102L12.0849 12.1892C12.0669 12.2038 12.0364 12.2168 12 12.2168C11.9636 12.2168 11.9331 12.2038 11.9151 12.1893L12.542 11.4102L13.1689 10.631C12.4825 10.0788 11.5176 10.0786 10.8311 10.6311L11.458 11.4102ZM12.542 11.4102L11.915 12.1892C12.3835 12.5662 13.0923 13.1946 13.7161 13.9779C14.3473 14.7705 14.8337 15.6496 14.965 16.532L15.9541 16.3848L16.9432 16.2376C16.7391 14.8662 16.0208 13.6614 15.2805 12.7319C14.5328 11.7931 13.7032 11.0611 13.1689 10.6311L12.542 11.4102ZM15.9541 16.3848L14.9649 16.5314C14.9596 16.4958 14.9569 16.464 14.9555 16.4372C14.9541 16.4106 14.954 16.3878 14.9543 16.3704C14.9546 16.3532 14.9553 16.3393 14.9557 16.3309C14.956 16.3267 14.9562 16.3232 14.9563 16.3211C14.9564 16.32 14.9565 16.3192 14.9565 16.3186C14.9565 16.3184 14.9565 16.3182 14.9565 16.318C14.9565 16.3179 14.9565 16.3179 14.9565 16.3179C14.9566 16.3178 14.9566 16.3178 14.9566 16.3178C14.9566 16.3174 14.9565 16.3191 14.9563 16.3209C14.9562 16.323 14.956 16.3264 14.9557 16.3306C14.9553 16.3387 14.9546 16.3525 14.9542 16.3697C14.9539 16.3869 14.9539 16.4096 14.9551 16.4361C14.9563 16.4627 14.9589 16.4944 14.9639 16.53L15.9541 16.3906L16.9443 16.2512C16.9493 16.2864 16.9518 16.3176 16.953 16.3437C16.9542 16.3698 16.9542 16.3919 16.9538 16.4087C16.9535 16.4253 16.9528 16.4386 16.9524 16.4463C16.9522 16.4503 16.9519 16.4534 16.9518 16.4552C16.9517 16.4568 16.9516 16.4582 16.9517 16.4576C16.9517 16.4576 16.9518 16.4557 16.9519 16.4535C16.9521 16.4512 16.9523 16.4475 16.9526 16.443C16.9531 16.4342 16.9538 16.4198 16.9541 16.402C16.9543 16.3841 16.9542 16.3609 16.9528 16.3337C16.9514 16.3065 16.9486 16.2742 16.9433 16.2381L15.9541 16.3848ZM15.9541 16.3906L14.9656 16.5417C14.9882 16.6898 15 16.8429 15 17H16H17C17 16.7428 16.9807 16.4887 16.9426 16.2395L15.9541 16.3906ZM16 17L15 17C15 18.6568 13.6568 20 12 20V21V22C14.7614 22 17 19.7614 17 17L16 17ZM12 21V20C10.3432 20 9.00001 18.6568 9 17L8 17L7 17C7.00002 19.7614 9.23858 22 12 22V21ZM8 17H9C9 16.8429 9.01178 16.6898 9.03442 16.5417L8.0459 16.3906L7.05738 16.2395C7.01929 16.4887 7 16.7428 7 17H8ZM8.0459 16.3906L9.03614 16.53C9.04115 16.4944 9.04367 16.4627 9.0449 16.4361C9.04612 16.4096 9.04612 16.3869 9.04578 16.3697C9.04545 16.3525 9.04474 16.3387 9.04427 16.3306C9.04402 16.3264 9.0438 16.323 9.04366 16.3209C9.04354 16.3191 9.04342 16.3174 9.04345 16.3178C9.04345 16.3178 9.04345 16.3178 9.04345 16.3178C9.04345 16.3179 9.04346 16.3179 9.04346 16.318C9.04347 16.3182 9.04349 16.3184 9.04351 16.3186C9.04354 16.3192 9.0436 16.32 9.04367 16.3211C9.04381 16.3232 9.04403 16.3267 9.04427 16.3309C9.04474 16.3393 9.04542 16.3532 9.04569 16.3704C9.04597 16.3878 9.04587 16.4106 9.04449 16.4372C9.0431 16.464 9.04037 16.4958 9.03508 16.5314L8.0459 16.3848L7.05671 16.2381C7.05136 16.2742 7.04858 16.3065 7.04717 16.3337C7.04576 16.3609 7.04566 16.3841 7.04594 16.402C7.04622 16.4198 7.04692 16.4342 7.04742 16.443C7.04767 16.4475 7.04791 16.4512 7.04806 16.4535C7.04821 16.4557 7.04834 16.4576 7.04834 16.4576C7.04838 16.4582 7.04828 16.4568 7.04817 16.4552C7.04806 16.4534 7.04785 16.4503 7.04762 16.4463C7.04717 16.4386 7.04649 16.4253 7.04616 16.4087C7.04584 16.3919 7.04583 16.3698 7.04703 16.3437C7.04824 16.3176 7.05072 16.2864 7.05566 16.2512L8.0459 16.3906ZM8.0459 16.3848L9.035 16.532C9.16633 15.6496 9.65269 14.7705 10.2839 13.9779C10.9077 13.1946 11.6165 12.5662 12.085 12.1892L11.458 11.4102L10.8311 10.6311C10.2968 11.0611 9.46717 11.7931 8.71945 12.7319C7.97919 13.6614 7.26089 14.8662 7.05679 16.2376L8.0459 16.3848Z" fill="#66FCF1"/>
</svg>
